<svg xmlns="http://www.w3.org/2000/svg" xmlns:xlink="http://www.w3.org/1999/xlink" width="320" zoomAndPan="magnify" viewBox="0 0 240 239.999995" height="320" preserveAspectRatio="xMidYMid meet" version="1.0"><defs><g/></defs><path stroke-linecap="butt" transform="matrix(0.75, 0.000000000000000205, -0.000000000000000205, 0.75, 3.261132, 163.308388)" fill="none" stroke-linejoin="miter" d="M 0.000782469 1.500274 L 311.302886 1.500274 " stroke="#000000" stroke-width="3" stroke-opacity="1" stroke-miterlimit="4"/><path fill="#e2d3b5" d="M 101.25 58.480469 L 143.4375 80.824219 L 140.6875 82.515625 L 101.25 58.480469 " fill-opacity="1" fill-rule="nonzero"/><path fill="#000000" d="M 108.308594 87.847656 L 94.203125 98.726562 L 94.203125 96.539062 L 108.308594 85.660156 Z M 108.308594 87.847656 " fill-opacity="1" fill-rule="nonzero"/><path fill="#000000" d="M 108.308594 91.3125 L 94.203125 102.1875 L 94.203125 100 L 108.308594 89.125 Z M 108.308594 91.3125 " fill-opacity="1" fill-rule="nonzero"/><path fill="#000000" d="M 108.300781 94.816406 L 94.195312 105.691406 L 94.195312 103.503906 L 108.300781 92.625 Z M 108.300781 94.816406 " fill-opacity="1" fill-rule="nonzero"/><path fill="#000000" d="M 108.308594 98.296875 L 94.203125 109.171875 L 94.203125 106.984375 L 108.308594 96.109375 Z M 108.308594 98.296875 " fill-opacity="1" fill-rule="nonzero"/><path fill="#000000" d="M 94.191406 110.480469 L 108.296875 99.601562 L 108.304688 112.878906 L 94.191406 123.582031 Z M 94.191406 110.480469 " fill-opacity="1" fill-rule="nonzero"/><path fill="#ba952b" d="M 104.828125 66.109375 L 94.195312 53.136719 L 94.195312 60.546875 Z M 104.828125 66.109375 " fill-opacity="1" fill-rule="nonzero"/><path fill="#000000" d="M 94.195312 63.082031 L 94.195312 94.867188 L 108.300781 83.945312 L 108.300781 75.234375 Z M 94.195312 63.082031 " fill-opacity="1" fill-rule="nonzero"/><path fill="#000000" d="M 129.425781 78.972656 L 110.351562 89.125 L 110.351562 98.726562 L 138.625 80.824219 L 101.25 58.480469 L 143.4375 80.824219 L 117.546875 96.761719 L 117.546875 101.050781 L 150.84375 80.824219 L 94.195312 53.136719 L 104.828125 66.109375 Z M 129.425781 78.972656 " fill-opacity="1" fill-rule="nonzero"/><path fill="#e2d3b5" d="M 138.625 80.824219 L 138.625 83.757812 L 110.351562 101.765625 L 110.351562 98.726562 L 138.625 80.824219 " fill-opacity="1" fill-rule="nonzero"/><path fill="#e2d3b5" d="M 150.84375 80.824219 L 150.84375 83.820312 L 117.546875 104.046875 L 117.546875 101.050781 Z M 150.84375 80.824219 " fill-opacity="1" fill-rule="nonzero"/><path fill="#e2d3b5" d="M 126.199219 80.691406 L 129.425781 78.972656 L 94.195312 60.546875 L 100.355469 66.109375 Z M 126.199219 80.691406 " fill-opacity="1" fill-rule="nonzero"/><g fill="#000000" fill-opacity="1"><g transform="translate(4.77085, 155.766234)"><g><path d="M 12.96875 -23.53125 C 15.050781 -23.53125 16.859375 -23.179688 18.390625 -22.484375 C 19.929688 -21.785156 21.113281 -20.796875 21.9375 -19.515625 C 22.769531 -18.242188 23.1875 -16.734375 23.1875 -14.984375 C 23.1875 -13.265625 22.769531 -11.757812 21.9375 -10.46875 C 21.113281 -9.175781 19.929688 -8.1875 18.390625 -7.5 C 16.859375 -6.820312 15.050781 -6.484375 12.96875 -6.484375 L 8.234375 -6.484375 L 8.234375 0 L 2.796875 0 L 2.796875 -23.53125 Z M 12.671875 -10.921875 C 14.304688 -10.921875 15.546875 -11.273438 16.390625 -11.984375 C 17.242188 -12.691406 17.671875 -13.691406 17.671875 -14.984375 C 17.671875 -16.304688 17.242188 -17.320312 16.390625 -18.03125 C 15.546875 -18.738281 14.304688 -19.09375 12.671875 -19.09375 L 8.234375 -19.09375 L 8.234375 -10.921875 Z M 12.671875 -10.921875 "/></g></g></g><g fill="#000000" fill-opacity="1"><g transform="translate(29.367651, 155.766234)"><g><path d="M 17.78125 0 L 13.234375 -6.546875 L 8.234375 -6.546875 L 8.234375 0 L 2.796875 0 L 2.796875 -23.53125 L 12.96875 -23.53125 C 15.050781 -23.53125 16.859375 -23.179688 18.390625 -22.484375 C 19.929688 -21.785156 21.113281 -20.796875 21.9375 -19.515625 C 22.769531 -18.242188 23.1875 -16.734375 23.1875 -14.984375 C 23.1875 -13.242188 22.765625 -11.738281 21.921875 -10.46875 C 21.085938 -9.207031 19.894531 -8.238281 18.34375 -7.5625 L 23.625 0 Z M 17.671875 -14.984375 C 17.671875 -16.304688 17.242188 -17.320312 16.390625 -18.03125 C 15.546875 -18.738281 14.304688 -19.09375 12.671875 -19.09375 L 8.234375 -19.09375 L 8.234375 -10.890625 L 12.671875 -10.890625 C 14.304688 -10.890625 15.546875 -11.25 16.390625 -11.96875 C 17.242188 -12.6875 17.671875 -13.691406 17.671875 -14.984375 Z M 17.671875 -14.984375 "/></g></g></g><g fill="#000000" fill-opacity="1"><g transform="translate(54.065256, 155.766234)"><g><path d="M 14.1875 0.40625 C 11.738281 0.40625 9.535156 -0.117188 7.578125 -1.171875 C 5.617188 -2.222656 4.082031 -3.671875 2.96875 -5.515625 C 1.863281 -7.367188 1.3125 -9.453125 1.3125 -11.765625 C 1.3125 -14.066406 1.863281 -16.140625 2.96875 -17.984375 C 4.082031 -19.835938 5.617188 -21.289062 7.578125 -22.34375 C 9.535156 -23.40625 11.738281 -23.9375 14.1875 -23.9375 C 16.625 -23.9375 18.816406 -23.40625 20.765625 -22.34375 C 22.710938 -21.289062 24.25 -19.835938 25.375 -17.984375 C 26.5 -16.140625 27.0625 -14.066406 27.0625 -11.765625 C 27.0625 -9.453125 26.5 -7.367188 25.375 -5.515625 C 24.25 -3.671875 22.710938 -2.222656 20.765625 -1.171875 C 18.816406 -0.117188 16.625 0.40625 14.1875 0.40625 Z M 14.1875 -4.234375 C 15.570312 -4.234375 16.820312 -4.550781 17.9375 -5.1875 C 19.0625 -5.832031 19.941406 -6.722656 20.578125 -7.859375 C 21.222656 -9.003906 21.546875 -10.304688 21.546875 -11.765625 C 21.546875 -13.222656 21.222656 -14.519531 20.578125 -15.65625 C 19.941406 -16.800781 19.0625 -17.691406 17.9375 -18.328125 C 16.820312 -18.972656 15.570312 -19.296875 14.1875 -19.296875 C 12.789062 -19.296875 11.53125 -18.972656 10.40625 -18.328125 C 9.289062 -17.691406 8.414062 -16.800781 7.78125 -15.65625 C 7.144531 -14.519531 6.828125 -13.222656 6.828125 -11.765625 C 6.828125 -10.304688 7.144531 -9.003906 7.78125 -7.859375 C 8.414062 -6.722656 9.289062 -5.832031 10.40625 -5.1875 C 11.53125 -4.550781 12.789062 -4.234375 14.1875 -4.234375 Z M 14.1875 -4.234375 "/></g></g></g><g fill="#000000" fill-opacity="1"><g transform="translate(82.425499, 155.766234)"><g><path d="M 18.6875 -12.140625 L 23.65625 -12.140625 L 23.65625 -2.59375 C 22.382812 -1.625 20.90625 -0.878906 19.21875 -0.359375 C 17.539062 0.148438 15.851562 0.40625 14.15625 0.40625 C 11.707031 0.40625 9.507812 -0.113281 7.5625 -1.15625 C 5.613281 -2.195312 4.082031 -3.640625 2.96875 -5.484375 C 1.863281 -7.335938 1.3125 -9.429688 1.3125 -11.765625 C 1.3125 -14.097656 1.863281 -16.1875 2.96875 -18.03125 C 4.082031 -19.875 5.625 -21.316406 7.59375 -22.359375 C 9.5625 -23.410156 11.78125 -23.9375 14.25 -23.9375 C 16.3125 -23.9375 18.179688 -23.585938 19.859375 -22.890625 C 21.546875 -22.191406 22.957031 -21.179688 24.09375 -19.859375 L 20.609375 -16.640625 C 18.921875 -18.410156 16.890625 -19.296875 14.515625 -19.296875 C 13.015625 -19.296875 11.679688 -18.976562 10.515625 -18.34375 C 9.347656 -17.71875 8.441406 -16.832031 7.796875 -15.6875 C 7.148438 -14.550781 6.828125 -13.242188 6.828125 -11.765625 C 6.828125 -10.304688 7.148438 -9.003906 7.796875 -7.859375 C 8.441406 -6.722656 9.34375 -5.832031 10.5 -5.1875 C 11.65625 -4.550781 12.972656 -4.234375 14.453125 -4.234375 C 16.023438 -4.234375 17.4375 -4.570312 18.6875 -5.25 Z M 18.6875 -12.140625 "/></g></g></g><g fill="#000000" fill-opacity="1"><g transform="translate(108.332781, 155.766234)"><g><path d="M 17.78125 0 L 13.234375 -6.546875 L 8.234375 -6.546875 L 8.234375 0 L 2.796875 0 L 2.796875 -23.53125 L 12.96875 -23.53125 C 15.050781 -23.53125 16.859375 -23.179688 18.390625 -22.484375 C 19.929688 -21.785156 21.113281 -20.796875 21.9375 -19.515625 C 22.769531 -18.242188 23.1875 -16.734375 23.1875 -14.984375 C 23.1875 -13.242188 22.765625 -11.738281 21.921875 -10.46875 C 21.085938 -9.207031 19.894531 -8.238281 18.34375 -7.5625 L 23.625 0 Z M 17.671875 -14.984375 C 17.671875 -16.304688 17.242188 -17.320312 16.390625 -18.03125 C 15.546875 -18.738281 14.304688 -19.09375 12.671875 -19.09375 L 8.234375 -19.09375 L 8.234375 -10.890625 L 12.671875 -10.890625 C 14.304688 -10.890625 15.546875 -11.25 16.390625 -11.96875 C 17.242188 -12.6875 17.671875 -13.691406 17.671875 -14.984375 Z M 17.671875 -14.984375 "/></g></g></g><g fill="#000000" fill-opacity="1"><g transform="translate(133.030386, 155.766234)"><g><path d="M 21 -4.375 L 21 0 L 2.796875 0 L 2.796875 -23.53125 L 20.5625 -23.53125 L 20.5625 -19.15625 L 8.203125 -19.15625 L 8.203125 -14.046875 L 19.125 -14.046875 L 19.125 -9.8125 L 8.203125 -9.8125 L 8.203125 -4.375 Z M 21 -4.375 "/></g></g></g><g fill="#000000" fill-opacity="1"><g transform="translate(155.577446, 155.766234)"><g><path d="M 10.515625 0.40625 C 8.660156 0.40625 6.863281 0.15625 5.125 -0.34375 C 3.382812 -0.851562 1.988281 -1.507812 0.9375 -2.3125 L 2.796875 -6.421875 C 3.796875 -5.679688 4.988281 -5.085938 6.375 -4.640625 C 7.769531 -4.191406 9.160156 -3.96875 10.546875 -3.96875 C 12.097656 -3.96875 13.242188 -4.195312 13.984375 -4.65625 C 14.722656 -5.113281 15.09375 -5.722656 15.09375 -6.484375 C 15.09375 -7.046875 14.875 -7.507812 14.4375 -7.875 C 14 -8.25 13.4375 -8.546875 12.75 -8.765625 C 12.070312 -8.992188 11.148438 -9.242188 9.984375 -9.515625 C 8.191406 -9.941406 6.722656 -10.363281 5.578125 -10.78125 C 4.429688 -11.207031 3.445312 -11.890625 2.625 -12.828125 C 1.8125 -13.773438 1.40625 -15.035156 1.40625 -16.609375 C 1.40625 -17.972656 1.773438 -19.207031 2.515625 -20.3125 C 3.253906 -21.425781 4.367188 -22.304688 5.859375 -22.953125 C 7.347656 -23.609375 9.171875 -23.9375 11.328125 -23.9375 C 12.828125 -23.9375 14.289062 -23.753906 15.71875 -23.390625 C 17.15625 -23.035156 18.414062 -22.519531 19.5 -21.84375 L 17.8125 -17.71875 C 15.632812 -18.945312 13.460938 -19.5625 11.296875 -19.5625 C 9.765625 -19.5625 8.632812 -19.3125 7.90625 -18.8125 C 7.1875 -18.320312 6.828125 -17.675781 6.828125 -16.875 C 6.828125 -16.0625 7.242188 -15.457031 8.078125 -15.0625 C 8.921875 -14.675781 10.207031 -14.296875 11.9375 -13.921875 C 13.726562 -13.492188 15.191406 -13.066406 16.328125 -12.640625 C 17.472656 -12.210938 18.453125 -11.539062 19.265625 -10.625 C 20.085938 -9.707031 20.5 -8.460938 20.5 -6.890625 C 20.5 -5.546875 20.125 -4.316406 19.375 -3.203125 C 18.625 -2.097656 17.5 -1.21875 16 -0.5625 C 14.5 0.0820312 12.671875 0.40625 10.515625 0.40625 Z M 10.515625 0.40625 "/></g></g></g><g fill="#000000" fill-opacity="1"><g transform="translate(177.015635, 155.766234)"><g><path d="M 10.515625 0.40625 C 8.660156 0.40625 6.863281 0.15625 5.125 -0.34375 C 3.382812 -0.851562 1.988281 -1.507812 0.9375 -2.3125 L 2.796875 -6.421875 C 3.796875 -5.679688 4.988281 -5.085938 6.375 -4.640625 C 7.769531 -4.191406 9.160156 -3.96875 10.546875 -3.96875 C 12.097656 -3.96875 13.242188 -4.195312 13.984375 -4.65625 C 14.722656 -5.113281 15.09375 -5.722656 15.09375 -6.484375 C 15.09375 -7.046875 14.875 -7.507812 14.4375 -7.875 C 14 -8.25 13.4375 -8.546875 12.75 -8.765625 C 12.070312 -8.992188 11.148438 -9.242188 9.984375 -9.515625 C 8.191406 -9.941406 6.722656 -10.363281 5.578125 -10.78125 C 4.429688 -11.207031 3.445312 -11.890625 2.625 -12.828125 C 1.8125 -13.773438 1.40625 -15.035156 1.40625 -16.609375 C 1.40625 -17.972656 1.773438 -19.207031 2.515625 -20.3125 C 3.253906 -21.425781 4.367188 -22.304688 5.859375 -22.953125 C 7.347656 -23.609375 9.171875 -23.9375 11.328125 -23.9375 C 12.828125 -23.9375 14.289062 -23.753906 15.71875 -23.390625 C 17.15625 -23.035156 18.414062 -22.519531 19.5 -21.84375 L 17.8125 -17.71875 C 15.632812 -18.945312 13.460938 -19.5625 11.296875 -19.5625 C 9.765625 -19.5625 8.632812 -19.3125 7.90625 -18.8125 C 7.1875 -18.320312 6.828125 -17.675781 6.828125 -16.875 C 6.828125 -16.0625 7.242188 -15.457031 8.078125 -15.0625 C 8.921875 -14.675781 10.207031 -14.296875 11.9375 -13.921875 C 13.726562 -13.492188 15.191406 -13.066406 16.328125 -12.640625 C 17.472656 -12.210938 18.453125 -11.539062 19.265625 -10.625 C 20.085938 -9.707031 20.5 -8.460938 20.5 -6.890625 C 20.5 -5.546875 20.125 -4.316406 19.375 -3.203125 C 18.625 -2.097656 17.5 -1.21875 16 -0.5625 C 14.5 0.0820312 12.671875 0.40625 10.515625 0.40625 Z M 10.515625 0.40625 "/></g></g></g><g fill="#000000" fill-opacity="1"><g transform="translate(198.453824, 155.766234)"><g><path d="M 2.796875 -23.53125 L 8.234375 -23.53125 L 8.234375 0 L 2.796875 0 Z M 2.796875 -23.53125 "/></g></g></g><g fill="#000000" fill-opacity="1"><g transform="translate(209.475335, 155.766234)"><g><path d="M 18.28125 -5.046875 L 7.359375 -5.046875 L 5.28125 0 L -0.296875 0 L 10.1875 -23.53125 L 15.5625 -23.53125 L 26.078125 0 L 20.375 0 Z M 16.5625 -9.171875 L 12.84375 -18.1875 L 9.109375 -9.171875 Z M 16.5625 -9.171875 "/></g></g></g><g fill="#ba952b" fill-opacity="1"><g transform="translate(7.186841, 183.977082)"><g><path d="M 2.6875 -10.875 L 9.9375 -10.875 C 10.445312 -10.875 10.875 -10.695312 11.21875 -10.34375 C 11.570312 -10 11.75 -9.570312 11.75 -9.0625 L 11.75 0 L 10.53125 0 L 10.53125 -3.96875 L 2.09375 -3.96875 L 2.09375 0 L 0.875 0 L 0.875 -9.0625 C 0.875 -9.570312 1.050781 -10 1.40625 -10.34375 C 1.757812 -10.695312 2.1875 -10.875 2.6875 -10.875 Z M 2.09375 -5.203125 L 10.53125 -5.203125 L 10.53125 -9.0625 C 10.53125 -9.226562 10.472656 -9.367188 10.359375 -9.484375 C 10.242188 -9.597656 10.101562 -9.65625 9.9375 -9.65625 L 2.6875 -9.65625 C 2.53125 -9.65625 2.390625 -9.597656 2.265625 -9.484375 C 2.148438 -9.367188 2.09375 -9.226562 2.09375 -9.0625 Z M 2.09375 -5.203125 "/></g></g></g><g fill="#ba952b" fill-opacity="1"><g transform="translate(21.949854, 183.977082)"><g><path d="M 9.984375 -8.765625 L 11.4375 -8.765625 L 6.59375 0 L 5.15625 0 L 0.3125 -8.765625 L 1.765625 -8.765625 L 5.875 -1.203125 Z M 9.984375 -8.765625 "/></g></g></g><g fill="#ba952b" fill-opacity="1"><g transform="translate(36.017848, 183.977082)"><g><path d="M 7.875 -8.765625 C 8.382812 -8.765625 8.816406 -8.582031 9.171875 -8.21875 C 9.535156 -7.863281 9.71875 -7.4375 9.71875 -6.9375 L 9.71875 0 L 2.609375 0 C 2.109375 0 1.675781 -0.175781 1.3125 -0.53125 C 0.957031 -0.894531 0.78125 -1.328125 0.78125 -1.828125 L 0.78125 -5 L 8.46875 -5 L 8.46875 -6.9375 C 8.46875 -7.09375 8.40625 -7.226562 8.28125 -7.34375 C 8.164062 -7.46875 8.03125 -7.53125 7.875 -7.53125 L 0.78125 -7.53125 L 0.78125 -8.765625 Z M 8.46875 -1.234375 L 8.46875 -3.765625 L 2.03125 -3.765625 L 2.03125 -1.828125 C 2.03125 -1.671875 2.085938 -1.53125 2.203125 -1.40625 C 2.316406 -1.289062 2.453125 -1.234375 2.609375 -1.234375 Z M 8.46875 -1.234375 "/></g></g></g><g fill="#ba952b" fill-opacity="1"><g transform="translate(48.635385, 183.977082)"><g><path d="M 7.921875 -8.765625 C 8.421875 -8.765625 8.847656 -8.582031 9.203125 -8.21875 C 9.566406 -7.863281 9.75 -7.4375 9.75 -6.9375 L 9.75 0 L 8.5 0 L 8.5 -6.9375 C 8.5 -7.09375 8.441406 -7.226562 8.328125 -7.34375 C 8.210938 -7.46875 8.078125 -7.53125 7.921875 -7.53125 L 2.65625 -7.53125 C 2.5 -7.53125 2.359375 -7.46875 2.234375 -7.34375 C 2.117188 -7.226562 2.0625 -7.09375 2.0625 -6.9375 L 2.0625 0 L 0.8125 0 L 0.8125 -8.765625 Z M 7.921875 -8.765625 "/></g></g></g><g fill="#ba952b" fill-opacity="1"><g transform="translate(61.283139, 183.977082)"><g><path d="M 2.59375 -1.234375 L 9.703125 -1.234375 L 9.703125 0 L 2.59375 0 C 2.09375 0 1.660156 -0.175781 1.296875 -0.53125 C 0.941406 -0.894531 0.765625 -1.328125 0.765625 -1.828125 L 0.765625 -6.9375 C 0.765625 -7.4375 0.941406 -7.863281 1.296875 -8.21875 C 1.660156 -8.582031 2.09375 -8.765625 2.59375 -8.765625 L 9.671875 -8.765625 L 9.671875 -7.53125 L 2.59375 -7.53125 C 2.4375 -7.53125 2.300781 -7.46875 2.1875 -7.34375 C 2.070312 -7.226562 2.015625 -7.09375 2.015625 -6.9375 L 2.015625 -1.828125 C 2.015625 -1.671875 2.070312 -1.53125 2.1875 -1.40625 C 2.300781 -1.289062 2.4375 -1.234375 2.59375 -1.234375 Z M 2.59375 -1.234375 "/></g></g></g><g fill="#ba952b" fill-opacity="1"><g transform="translate(73.915781, 183.977082)"><g><path d="M 7.859375 -8.765625 C 8.367188 -8.765625 8.800781 -8.582031 9.15625 -8.21875 C 9.519531 -7.863281 9.703125 -7.4375 9.703125 -6.9375 L 9.703125 -3.765625 L 2.015625 -3.765625 L 2.015625 -1.828125 C 2.015625 -1.671875 2.070312 -1.53125 2.1875 -1.40625 C 2.300781 -1.289062 2.4375 -1.234375 2.59375 -1.234375 L 9.703125 -1.234375 L 9.703125 0 L 2.59375 0 C 2.09375 0 1.660156 -0.175781 1.296875 -0.53125 C 0.941406 -0.894531 0.765625 -1.328125 0.765625 -1.828125 L 0.765625 -6.9375 C 0.765625 -7.4375 0.941406 -7.863281 1.296875 -8.21875 C 1.660156 -8.582031 2.09375 -8.765625 2.59375 -8.765625 Z M 2.015625 -5 L 8.453125 -5 L 8.453125 -6.9375 C 8.453125 -7.09375 8.390625 -7.226562 8.265625 -7.34375 C 8.148438 -7.46875 8.015625 -7.53125 7.859375 -7.53125 L 2.59375 -7.53125 C 2.4375 -7.53125 2.300781 -7.46875 2.1875 -7.34375 C 2.070312 -7.226562 2.015625 -7.09375 2.015625 -6.9375 Z M 2.015625 -5 "/></g></g></g><g fill="#ba952b" fill-opacity="1"><g transform="translate(86.503104, 183.977082)"><g/></g></g><g fill="#ba952b" fill-opacity="1"><g transform="translate(92.744636, 183.977082)"><g><path d="M 2.59375 -1.234375 L 9.703125 -1.234375 L 9.703125 0 L 2.59375 0 C 2.09375 0 1.660156 -0.175781 1.296875 -0.53125 C 0.941406 -0.894531 0.765625 -1.328125 0.765625 -1.828125 L 0.765625 -6.9375 C 0.765625 -7.4375 0.941406 -7.863281 1.296875 -8.21875 C 1.660156 -8.582031 2.09375 -8.765625 2.59375 -8.765625 L 9.671875 -8.765625 L 9.671875 -7.53125 L 2.59375 -7.53125 C 2.4375 -7.53125 2.300781 -7.46875 2.1875 -7.34375 C 2.070312 -7.226562 2.015625 -7.09375 2.015625 -6.9375 L 2.015625 -1.828125 C 2.015625 -1.671875 2.070312 -1.53125 2.1875 -1.40625 C 2.300781 -1.289062 2.4375 -1.234375 2.59375 -1.234375 Z M 2.59375 -1.234375 "/></g></g></g><g fill="#ba952b" fill-opacity="1"><g transform="translate(105.377278, 183.977082)"><g><path d="M 2.59375 -8.765625 L 7.859375 -8.765625 C 8.367188 -8.765625 8.800781 -8.582031 9.15625 -8.21875 C 9.519531 -7.863281 9.703125 -7.4375 9.703125 -6.9375 L 9.703125 -1.828125 C 9.703125 -1.328125 9.519531 -0.894531 9.15625 -0.53125 C 8.800781 -0.175781 8.367188 0 7.859375 0 L 2.59375 0 C 2.09375 0 1.660156 -0.175781 1.296875 -0.53125 C 0.941406 -0.894531 0.765625 -1.328125 0.765625 -1.828125 L 0.765625 -6.9375 C 0.765625 -7.4375 0.941406 -7.863281 1.296875 -8.21875 C 1.660156 -8.582031 2.09375 -8.765625 2.59375 -8.765625 Z M 7.859375 -7.53125 L 2.59375 -7.53125 C 2.4375 -7.53125 2.300781 -7.46875 2.1875 -7.34375 C 2.070312 -7.226562 2.015625 -7.09375 2.015625 -6.9375 L 2.015625 -1.828125 C 2.015625 -1.671875 2.070312 -1.53125 2.1875 -1.40625 C 2.300781 -1.289062 2.4375 -1.234375 2.59375 -1.234375 L 7.859375 -1.234375 C 8.015625 -1.234375 8.148438 -1.289062 8.265625 -1.40625 C 8.390625 -1.53125 8.453125 -1.671875 8.453125 -1.828125 L 8.453125 -6.9375 C 8.453125 -7.09375 8.390625 -7.226562 8.265625 -7.34375 C 8.148438 -7.46875 8.015625 -7.53125 7.859375 -7.53125 Z M 7.859375 -7.53125 "/></g></g></g><g fill="#ba952b" fill-opacity="1"><g transform="translate(117.964601, 183.977082)"><g><path d="M 7.921875 -8.765625 C 8.421875 -8.765625 8.847656 -8.582031 9.203125 -8.21875 C 9.566406 -7.863281 9.75 -7.4375 9.75 -6.9375 L 9.75 0 L 8.5 0 L 8.5 -6.9375 C 8.5 -7.09375 8.441406 -7.226562 8.328125 -7.34375 C 8.210938 -7.46875 8.078125 -7.53125 7.921875 -7.53125 L 2.65625 -7.53125 C 2.5 -7.53125 2.359375 -7.46875 2.234375 -7.34375 C 2.117188 -7.226562 2.0625 -7.09375 2.0625 -6.9375 L 2.0625 0 L 0.8125 0 L 0.8125 -8.765625 Z M 7.921875 -8.765625 "/></g></g></g><g fill="#ba952b" fill-opacity="1"><g transform="translate(130.612359, 183.977082)"><g/></g></g><g fill="#ba952b" fill-opacity="1"><g transform="translate(136.853891, 183.977082)"><g><path d="M 7.921875 -8.765625 C 8.421875 -8.765625 8.847656 -8.582031 9.203125 -8.21875 C 9.566406 -7.863281 9.75 -7.4375 9.75 -6.9375 L 9.75 -1.828125 C 9.75 -1.328125 9.566406 -0.894531 9.203125 -0.53125 C 8.847656 -0.175781 8.421875 0 7.921875 0 L 2.0625 0 L 2.0625 3.46875 L 0.8125 3.46875 L 0.8125 -8.765625 Z M 8.5 -1.828125 L 8.5 -6.9375 C 8.5 -7.09375 8.441406 -7.226562 8.328125 -7.34375 C 8.210938 -7.46875 8.078125 -7.53125 7.921875 -7.53125 L 2.65625 -7.53125 C 2.5 -7.53125 2.359375 -7.46875 2.234375 -7.34375 C 2.117188 -7.226562 2.0625 -7.09375 2.0625 -6.9375 L 2.0625 -1.828125 C 2.0625 -1.671875 2.117188 -1.53125 2.234375 -1.40625 C 2.359375 -1.289062 2.5 -1.234375 2.65625 -1.234375 L 7.921875 -1.234375 C 8.078125 -1.234375 8.210938 -1.289062 8.328125 -1.40625 C 8.441406 -1.53125 8.5 -1.671875 8.5 -1.828125 Z M 8.5 -1.828125 "/></g></g></g><g fill="#ba952b" fill-opacity="1"><g transform="translate(149.018153, 183.977082)"><g><path d="M 2.609375 -8.765625 L 7.546875 -8.765625 L 7.546875 -7.53125 L 2.609375 -7.53125 C 2.453125 -7.53125 2.316406 -7.46875 2.203125 -7.34375 C 2.085938 -7.226562 2.03125 -7.09375 2.03125 -6.9375 L 2.03125 0 L 0.78125 0 L 0.78125 -6.9375 C 0.78125 -7.4375 0.957031 -7.863281 1.3125 -8.21875 C 1.675781 -8.582031 2.109375 -8.765625 2.609375 -8.765625 Z M 2.609375 -8.765625 "/></g></g></g><g fill="#ba952b" fill-opacity="1"><g transform="translate(158.885851, 183.977082)"><g><path d="M 2.59375 -8.765625 L 7.859375 -8.765625 C 8.367188 -8.765625 8.800781 -8.582031 9.15625 -8.21875 C 9.519531 -7.863281 9.703125 -7.4375 9.703125 -6.9375 L 9.703125 -1.828125 C 9.703125 -1.328125 9.519531 -0.894531 9.15625 -0.53125 C 8.800781 -0.175781 8.367188 0 7.859375 0 L 2.59375 0 C 2.09375 0 1.660156 -0.175781 1.296875 -0.53125 C 0.941406 -0.894531 0.765625 -1.328125 0.765625 -1.828125 L 0.765625 -6.9375 C 0.765625 -7.4375 0.941406 -7.863281 1.296875 -8.21875 C 1.660156 -8.582031 2.09375 -8.765625 2.59375 -8.765625 Z M 7.859375 -7.53125 L 2.59375 -7.53125 C 2.4375 -7.53125 2.300781 -7.46875 2.1875 -7.34375 C 2.070312 -7.226562 2.015625 -7.09375 2.015625 -6.9375 L 2.015625 -1.828125 C 2.015625 -1.671875 2.070312 -1.53125 2.1875 -1.40625 C 2.300781 -1.289062 2.4375 -1.234375 2.59375 -1.234375 L 7.859375 -1.234375 C 8.015625 -1.234375 8.148438 -1.289062 8.265625 -1.40625 C 8.390625 -1.53125 8.453125 -1.671875 8.453125 -1.828125 L 8.453125 -6.9375 C 8.453125 -7.09375 8.390625 -7.226562 8.265625 -7.34375 C 8.148438 -7.46875 8.015625 -7.53125 7.859375 -7.53125 Z M 7.859375 -7.53125 "/></g></g></g><g fill="#ba952b" fill-opacity="1"><g transform="translate(171.473175, 183.977082)"><g><path d="M 7.921875 -8.765625 C 8.421875 -8.765625 8.847656 -8.582031 9.203125 -8.21875 C 9.566406 -7.863281 9.75 -7.4375 9.75 -6.9375 L 9.75 -1.828125 C 9.75 -1.328125 9.566406 -0.894531 9.203125 -0.53125 C 8.847656 -0.175781 8.421875 0 7.921875 0 L 2.0625 0 L 2.0625 3.46875 L 0.8125 3.46875 L 0.8125 -8.765625 Z M 8.5 -1.828125 L 8.5 -6.9375 C 8.5 -7.09375 8.441406 -7.226562 8.328125 -7.34375 C 8.210938 -7.46875 8.078125 -7.53125 7.921875 -7.53125 L 2.65625 -7.53125 C 2.5 -7.53125 2.359375 -7.46875 2.234375 -7.34375 C 2.117188 -7.226562 2.0625 -7.09375 2.0625 -6.9375 L 2.0625 -1.828125 C 2.0625 -1.671875 2.117188 -1.53125 2.234375 -1.40625 C 2.359375 -1.289062 2.5 -1.234375 2.65625 -1.234375 L 7.921875 -1.234375 C 8.078125 -1.234375 8.210938 -1.289062 8.328125 -1.40625 C 8.441406 -1.53125 8.5 -1.671875 8.5 -1.828125 Z M 8.5 -1.828125 "/></g></g></g><g fill="#ba952b" fill-opacity="1"><g transform="translate(183.637437, 183.977082)"><g><path d="M 2.59375 -8.765625 L 7.859375 -8.765625 C 8.367188 -8.765625 8.800781 -8.582031 9.15625 -8.21875 C 9.519531 -7.863281 9.703125 -7.4375 9.703125 -6.9375 L 9.703125 -1.828125 C 9.703125 -1.328125 9.519531 -0.894531 9.15625 -0.53125 C 8.800781 -0.175781 8.367188 0 7.859375 0 L 2.59375 0 C 2.09375 0 1.660156 -0.175781 1.296875 -0.53125 C 0.941406 -0.894531 0.765625 -1.328125 0.765625 -1.828125 L 0.765625 -6.9375 C 0.765625 -7.4375 0.941406 -7.863281 1.296875 -8.21875 C 1.660156 -8.582031 2.09375 -8.765625 2.59375 -8.765625 Z M 7.859375 -7.53125 L 2.59375 -7.53125 C 2.4375 -7.53125 2.300781 -7.46875 2.1875 -7.34375 C 2.070312 -7.226562 2.015625 -7.09375 2.015625 -6.9375 L 2.015625 -1.828125 C 2.015625 -1.671875 2.070312 -1.53125 2.1875 -1.40625 C 2.300781 -1.289062 2.4375 -1.234375 2.59375 -1.234375 L 7.859375 -1.234375 C 8.015625 -1.234375 8.148438 -1.289062 8.265625 -1.40625 C 8.390625 -1.53125 8.453125 -1.671875 8.453125 -1.828125 L 8.453125 -6.9375 C 8.453125 -7.09375 8.390625 -7.226562 8.265625 -7.34375 C 8.148438 -7.46875 8.015625 -7.53125 7.859375 -7.53125 Z M 4.109375 -11.546875 L 4.640625 -13.640625 L 5.828125 -13.640625 L 5.3125 -11.546875 Z M 4.109375 -11.546875 "/></g></g></g><g fill="#ba952b" fill-opacity="1"><g transform="translate(196.22476, 183.977082)"><g><path d="M 9.65625 -6.9375 L 9.65625 -6.8125 L 8.40625 -6.8125 L 8.40625 -6.9375 C 8.40625 -7.09375 8.34375 -7.226562 8.21875 -7.34375 C 8.101562 -7.46875 7.96875 -7.53125 7.8125 -7.53125 L 2.546875 -7.53125 C 2.390625 -7.53125 2.253906 -7.46875 2.140625 -7.34375 C 2.023438 -7.226562 1.96875 -7.09375 1.96875 -6.9375 L 1.96875 -5.59375 C 1.96875 -5.425781 2.023438 -5.285156 2.140625 -5.171875 C 2.253906 -5.054688 2.390625 -5 2.546875 -5 L 7.8125 -5 C 8.320312 -5 8.753906 -4.816406 9.109375 -4.453125 C 9.472656 -4.097656 9.65625 -3.671875 9.65625 -3.171875 L 9.65625 -1.828125 C 9.65625 -1.328125 9.472656 -0.894531 9.109375 -0.53125 C 8.753906 -0.175781 8.320312 0 7.8125 0 L 2.546875 0 C 2.046875 0 1.613281 -0.175781 1.25 -0.53125 C 0.894531 -0.894531 0.71875 -1.328125 0.71875 -1.828125 L 0.71875 -1.953125 L 1.96875 -1.953125 L 1.96875 -1.828125 C 1.96875 -1.671875 2.023438 -1.53125 2.140625 -1.40625 C 2.253906 -1.289062 2.390625 -1.234375 2.546875 -1.234375 L 7.8125 -1.234375 C 7.96875 -1.234375 8.101562 -1.289062 8.21875 -1.40625 C 8.34375 -1.53125 8.40625 -1.671875 8.40625 -1.828125 L 8.40625 -3.171875 C 8.40625 -3.335938 8.34375 -3.476562 8.21875 -3.59375 C 8.101562 -3.707031 7.96875 -3.765625 7.8125 -3.765625 L 2.546875 -3.765625 C 2.046875 -3.765625 1.613281 -3.941406 1.25 -4.296875 C 0.894531 -4.648438 0.71875 -5.082031 0.71875 -5.59375 L 0.71875 -6.9375 C 0.71875 -7.4375 0.894531 -7.863281 1.25 -8.21875 C 1.613281 -8.582031 2.046875 -8.765625 2.546875 -8.765625 L 7.8125 -8.765625 C 8.320312 -8.765625 8.753906 -8.582031 9.109375 -8.21875 C 9.472656 -7.863281 9.65625 -7.4375 9.65625 -6.9375 Z M 9.65625 -6.9375 "/></g></g></g><g fill="#ba952b" fill-opacity="1"><g transform="translate(208.721431, 183.977082)"><g><path d="M 0.78125 0 L 0.78125 -8.765625 L 2.03125 -8.765625 L 2.03125 0 Z M 0.78125 -11.640625 L 2.03125 -11.640625 L 2.03125 -10.390625 L 0.78125 -10.390625 Z M 0.78125 -11.640625 "/></g></g></g><g fill="#ba952b" fill-opacity="1"><g transform="translate(213.995986, 183.977082)"><g><path d="M 5.828125 -7.53125 L 2.046875 -7.53125 L 2.046875 -1.828125 C 2.046875 -1.671875 2.101562 -1.53125 2.21875 -1.40625 C 2.332031 -1.289062 2.46875 -1.234375 2.625 -1.234375 L 5.828125 -1.234375 L 5.828125 0 L 2.625 0 C 2.113281 0 1.679688 -0.175781 1.328125 -0.53125 C 0.972656 -0.894531 0.796875 -1.328125 0.796875 -1.828125 L 0.796875 -11.640625 L 2.046875 -11.640625 L 2.046875 -8.765625 L 5.828125 -8.765625 Z M 5.828125 -7.53125 "/></g></g></g><g fill="#ba952b" fill-opacity="1"><g transform="translate(222.322559, 183.977082)"><g><path d="M 2.59375 -8.765625 L 7.859375 -8.765625 C 8.367188 -8.765625 8.800781 -8.582031 9.15625 -8.21875 C 9.519531 -7.863281 9.703125 -7.4375 9.703125 -6.9375 L 9.703125 -1.828125 C 9.703125 -1.328125 9.519531 -0.894531 9.15625 -0.53125 C 8.800781 -0.175781 8.367188 0 7.859375 0 L 2.59375 0 C 2.09375 0 1.660156 -0.175781 1.296875 -0.53125 C 0.941406 -0.894531 0.765625 -1.328125 0.765625 -1.828125 L 0.765625 -6.9375 C 0.765625 -7.4375 0.941406 -7.863281 1.296875 -8.21875 C 1.660156 -8.582031 2.09375 -8.765625 2.59375 -8.765625 Z M 7.859375 -7.53125 L 2.59375 -7.53125 C 2.4375 -7.53125 2.300781 -7.46875 2.1875 -7.34375 C 2.070312 -7.226562 2.015625 -7.09375 2.015625 -6.9375 L 2.015625 -1.828125 C 2.015625 -1.671875 2.070312 -1.53125 2.1875 -1.40625 C 2.300781 -1.289062 2.4375 -1.234375 2.59375 -1.234375 L 7.859375 -1.234375 C 8.015625 -1.234375 8.148438 -1.289062 8.265625 -1.40625 C 8.390625 -1.53125 8.453125 -1.671875 8.453125 -1.828125 L 8.453125 -6.9375 C 8.453125 -7.09375 8.390625 -7.226562 8.265625 -7.34375 C 8.148438 -7.46875 8.015625 -7.53125 7.859375 -7.53125 Z M 7.859375 -7.53125 "/></g></g></g></svg>