<svg xmlns="http://www.w3.org/2000/svg" xmlns:xlink="http://www.w3.org/1999/xlink" width="320" zoomAndPan="magnify" viewBox="0 0 240 239.999995" height="320" preserveAspectRatio="xMidYMid meet" version="1.0"><defs><g/></defs><path stroke-linecap="butt" transform="matrix(0.75, -0.000000000000000186, 0.000000000000000186, 0.75, 60.641344, 122.594407)" fill="none" stroke-linejoin="miter" d="M -0.000958112 0.999125 L 228.374056 0.999125 " stroke="#000000" stroke-width="2" stroke-opacity="1" stroke-miterlimit="4"/><g fill="#000000" fill-opacity="1"><g transform="translate(61.748872, 116.986192)"><g><path d="M 9.515625 -17.265625 C 11.046875 -17.265625 12.375 -17.007812 13.5 -16.5 C 14.625 -15.988281 15.488281 -15.265625 16.09375 -14.328125 C 16.707031 -13.390625 17.015625 -12.28125 17.015625 -11 C 17.015625 -9.726562 16.707031 -8.617188 16.09375 -7.671875 C 15.488281 -6.734375 14.625 -6.015625 13.5 -5.515625 C 12.375 -5.015625 11.046875 -4.765625 9.515625 -4.765625 L 6.046875 -4.765625 L 6.046875 0 L 2.046875 0 L 2.046875 -17.265625 Z M 9.296875 -8.015625 C 10.492188 -8.015625 11.40625 -8.269531 12.03125 -8.78125 C 12.65625 -9.300781 12.96875 -10.039062 12.96875 -11 C 12.96875 -11.96875 12.65625 -12.707031 12.03125 -13.21875 C 11.40625 -13.738281 10.492188 -14 9.296875 -14 L 6.046875 -14 L 6.046875 -8.015625 Z M 9.296875 -8.015625 "/></g></g></g><g fill="#000000" fill-opacity="1"><g transform="translate(79.793065, 116.986192)"><g><path d="M 13.046875 0 L 9.71875 -4.8125 L 6.046875 -4.8125 L 6.046875 0 L 2.046875 0 L 2.046875 -17.265625 L 9.515625 -17.265625 C 11.046875 -17.265625 12.375 -17.007812 13.5 -16.5 C 14.625 -15.988281 15.488281 -15.265625 16.09375 -14.328125 C 16.707031 -13.390625 17.015625 -12.28125 17.015625 -11 C 17.015625 -9.71875 16.703125 -8.609375 16.078125 -7.671875 C 15.460938 -6.742188 14.59375 -6.035156 13.46875 -5.546875 L 17.328125 0 Z M 12.96875 -11 C 12.96875 -11.96875 12.65625 -12.707031 12.03125 -13.21875 C 11.40625 -13.738281 10.492188 -14 9.296875 -14 L 6.046875 -14 L 6.046875 -7.984375 L 9.296875 -7.984375 C 10.492188 -7.984375 11.40625 -8.242188 12.03125 -8.765625 C 12.65625 -9.296875 12.96875 -10.039062 12.96875 -11 Z M 12.96875 -11 "/></g></g></g><g fill="#000000" fill-opacity="1"><g transform="translate(97.91121, 116.986192)"><g><path d="M 10.40625 0.296875 C 8.613281 0.296875 7 -0.0859375 5.5625 -0.859375 C 4.125 -1.628906 3 -2.691406 2.1875 -4.046875 C 1.375 -5.410156 0.96875 -6.9375 0.96875 -8.625 C 0.96875 -10.320312 1.375 -11.847656 2.1875 -13.203125 C 3 -14.554688 4.125 -15.617188 5.5625 -16.390625 C 7 -17.171875 8.613281 -17.5625 10.40625 -17.5625 C 12.195312 -17.5625 13.804688 -17.171875 15.234375 -16.390625 C 16.660156 -15.617188 17.785156 -14.554688 18.609375 -13.203125 C 19.429688 -11.847656 19.84375 -10.320312 19.84375 -8.625 C 19.84375 -6.9375 19.429688 -5.410156 18.609375 -4.046875 C 17.785156 -2.691406 16.660156 -1.628906 15.234375 -0.859375 C 13.804688 -0.0859375 12.195312 0.296875 10.40625 0.296875 Z M 10.40625 -3.109375 C 11.425781 -3.109375 12.347656 -3.34375 13.171875 -3.8125 C 13.992188 -4.28125 14.632812 -4.929688 15.09375 -5.765625 C 15.5625 -6.609375 15.796875 -7.5625 15.796875 -8.625 C 15.796875 -9.695312 15.5625 -10.648438 15.09375 -11.484375 C 14.632812 -12.328125 13.992188 -12.984375 13.171875 -13.453125 C 12.347656 -13.921875 11.425781 -14.15625 10.40625 -14.15625 C 9.382812 -14.15625 8.460938 -13.921875 7.640625 -13.453125 C 6.816406 -12.984375 6.171875 -12.328125 5.703125 -11.484375 C 5.234375 -10.648438 5 -9.695312 5 -8.625 C 5 -7.5625 5.234375 -6.609375 5.703125 -5.765625 C 6.171875 -4.929688 6.816406 -4.28125 7.640625 -3.8125 C 8.460938 -3.34375 9.382812 -3.109375 10.40625 -3.109375 Z M 10.40625 -3.109375 "/></g></g></g><g fill="#000000" fill-opacity="1"><g transform="translate(118.716262, 116.986192)"><g><path d="M 13.703125 -8.90625 L 17.359375 -8.90625 L 17.359375 -1.90625 C 16.421875 -1.195312 15.332031 -0.648438 14.09375 -0.265625 C 12.863281 0.109375 11.625 0.296875 10.375 0.296875 C 8.582031 0.296875 6.972656 -0.0820312 5.546875 -0.84375 C 4.117188 -1.613281 3 -2.675781 2.1875 -4.03125 C 1.375 -5.382812 0.96875 -6.914062 0.96875 -8.625 C 0.96875 -10.332031 1.375 -11.863281 2.1875 -13.21875 C 3 -14.582031 4.125 -15.644531 5.5625 -16.40625 C 7.007812 -17.175781 8.640625 -17.5625 10.453125 -17.5625 C 11.960938 -17.5625 13.332031 -17.304688 14.5625 -16.796875 C 15.800781 -16.285156 16.835938 -15.546875 17.671875 -14.578125 L 15.109375 -12.203125 C 13.878906 -13.503906 12.394531 -14.15625 10.65625 -14.15625 C 9.550781 -14.15625 8.570312 -13.921875 7.71875 -13.453125 C 6.863281 -12.992188 6.195312 -12.34375 5.71875 -11.5 C 5.238281 -10.664062 5 -9.707031 5 -8.625 C 5 -7.5625 5.238281 -6.609375 5.71875 -5.765625 C 6.195312 -4.929688 6.859375 -4.28125 7.703125 -3.8125 C 8.546875 -3.34375 9.515625 -3.109375 10.609375 -3.109375 C 11.753906 -3.109375 12.785156 -3.351562 13.703125 -3.84375 Z M 13.703125 -8.90625 "/></g></g></g><g fill="#000000" fill-opacity="1"><g transform="translate(137.721824, 116.986192)"><g><path d="M 13.046875 0 L 9.71875 -4.8125 L 6.046875 -4.8125 L 6.046875 0 L 2.046875 0 L 2.046875 -17.265625 L 9.515625 -17.265625 C 11.046875 -17.265625 12.375 -17.007812 13.5 -16.5 C 14.625 -15.988281 15.488281 -15.265625 16.09375 -14.328125 C 16.707031 -13.390625 17.015625 -12.28125 17.015625 -11 C 17.015625 -9.71875 16.703125 -8.609375 16.078125 -7.671875 C 15.460938 -6.742188 14.59375 -6.035156 13.46875 -5.546875 L 17.328125 0 Z M 12.96875 -11 C 12.96875 -11.96875 12.65625 -12.707031 12.03125 -13.21875 C 11.40625 -13.738281 10.492188 -14 9.296875 -14 L 6.046875 -14 L 6.046875 -7.984375 L 9.296875 -7.984375 C 10.492188 -7.984375 11.40625 -8.242188 12.03125 -8.765625 C 12.65625 -9.296875 12.96875 -10.039062 12.96875 -11 Z M 12.96875 -11 "/></g></g></g><g fill="#000000" fill-opacity="1"><g transform="translate(155.839968, 116.986192)"><g><path d="M 15.40625 -3.203125 L 15.40625 0 L 2.046875 0 L 2.046875 -17.265625 L 15.09375 -17.265625 L 15.09375 -14.046875 L 6.015625 -14.046875 L 6.015625 -10.3125 L 14.03125 -10.3125 L 14.03125 -7.203125 L 6.015625 -7.203125 L 6.015625 -3.203125 Z M 15.40625 -3.203125 "/></g></g></g><g fill="#000000" fill-opacity="1"><g transform="translate(172.380473, 116.986192)"><g><path d="M 7.71875 0.296875 C 6.351562 0.296875 5.03125 0.113281 3.75 -0.25 C 2.476562 -0.625 1.457031 -1.109375 0.6875 -1.703125 L 2.046875 -4.703125 C 2.785156 -4.160156 3.664062 -3.722656 4.6875 -3.390625 C 5.707031 -3.066406 6.722656 -2.90625 7.734375 -2.90625 C 8.867188 -2.90625 9.707031 -3.070312 10.25 -3.40625 C 10.800781 -3.75 11.078125 -4.203125 11.078125 -4.765625 C 11.078125 -5.171875 10.914062 -5.507812 10.59375 -5.78125 C 10.269531 -6.050781 9.859375 -6.269531 9.359375 -6.4375 C 8.859375 -6.601562 8.179688 -6.785156 7.328125 -6.984375 C 6.003906 -7.296875 4.921875 -7.609375 4.078125 -7.921875 C 3.242188 -8.234375 2.523438 -8.734375 1.921875 -9.421875 C 1.328125 -10.109375 1.03125 -11.03125 1.03125 -12.1875 C 1.03125 -13.1875 1.300781 -14.09375 1.84375 -14.90625 C 2.382812 -15.71875 3.203125 -16.363281 4.296875 -16.84375 C 5.390625 -17.320312 6.726562 -17.5625 8.3125 -17.5625 C 9.414062 -17.5625 10.488281 -17.425781 11.53125 -17.15625 C 12.582031 -16.894531 13.503906 -16.519531 14.296875 -16.03125 L 13.0625 -13 C 11.46875 -13.894531 9.875 -14.34375 8.28125 -14.34375 C 7.164062 -14.34375 6.335938 -14.160156 5.796875 -13.796875 C 5.265625 -13.441406 5 -12.96875 5 -12.375 C 5 -11.78125 5.304688 -11.335938 5.921875 -11.046875 C 6.546875 -10.765625 7.488281 -10.484375 8.75 -10.203125 C 10.0625 -9.890625 11.132812 -9.578125 11.96875 -9.265625 C 12.8125 -8.953125 13.535156 -8.457031 14.140625 -7.78125 C 14.742188 -7.113281 15.046875 -6.203125 15.046875 -5.046875 C 15.046875 -4.066406 14.769531 -3.171875 14.21875 -2.359375 C 13.664062 -1.546875 12.835938 -0.898438 11.734375 -0.421875 C 10.628906 0.0546875 9.289062 0.296875 7.71875 0.296875 Z M 7.71875 0.296875 "/></g></g></g><g fill="#000000" fill-opacity="1"><g transform="translate(188.107512, 116.986192)"><g><path d="M 7.71875 0.296875 C 6.351562 0.296875 5.03125 0.113281 3.75 -0.25 C 2.476562 -0.625 1.457031 -1.109375 0.6875 -1.703125 L 2.046875 -4.703125 C 2.785156 -4.160156 3.664062 -3.722656 4.6875 -3.390625 C 5.707031 -3.066406 6.722656 -2.90625 7.734375 -2.90625 C 8.867188 -2.90625 9.707031 -3.070312 10.25 -3.40625 C 10.800781 -3.75 11.078125 -4.203125 11.078125 -4.765625 C 11.078125 -5.171875 10.914062 -5.507812 10.59375 -5.78125 C 10.269531 -6.050781 9.859375 -6.269531 9.359375 -6.4375 C 8.859375 -6.601562 8.179688 -6.785156 7.328125 -6.984375 C 6.003906 -7.296875 4.921875 -7.609375 4.078125 -7.921875 C 3.242188 -8.234375 2.523438 -8.734375 1.921875 -9.421875 C 1.328125 -10.109375 1.03125 -11.03125 1.03125 -12.1875 C 1.03125 -13.1875 1.300781 -14.09375 1.84375 -14.90625 C 2.382812 -15.71875 3.203125 -16.363281 4.296875 -16.84375 C 5.390625 -17.320312 6.726562 -17.5625 8.3125 -17.5625 C 9.414062 -17.5625 10.488281 -17.425781 11.53125 -17.15625 C 12.582031 -16.894531 13.503906 -16.519531 14.296875 -16.03125 L 13.0625 -13 C 11.46875 -13.894531 9.875 -14.34375 8.28125 -14.34375 C 7.164062 -14.34375 6.335938 -14.160156 5.796875 -13.796875 C 5.265625 -13.441406 5 -12.96875 5 -12.375 C 5 -11.78125 5.304688 -11.335938 5.921875 -11.046875 C 6.546875 -10.765625 7.488281 -10.484375 8.75 -10.203125 C 10.0625 -9.890625 11.132812 -9.578125 11.96875 -9.265625 C 12.8125 -8.953125 13.535156 -8.457031 14.140625 -7.78125 C 14.742188 -7.113281 15.046875 -6.203125 15.046875 -5.046875 C 15.046875 -4.066406 14.769531 -3.171875 14.21875 -2.359375 C 13.664062 -1.546875 12.835938 -0.898438 11.734375 -0.421875 C 10.628906 0.0546875 9.289062 0.296875 7.71875 0.296875 Z M 7.71875 0.296875 "/></g></g></g><g fill="#000000" fill-opacity="1"><g transform="translate(203.834551, 116.986192)"><g><path d="M 2.046875 -17.265625 L 6.046875 -17.265625 L 6.046875 0 L 2.046875 0 Z M 2.046875 -17.265625 "/></g></g></g><g fill="#000000" fill-opacity="1"><g transform="translate(211.919923, 116.986192)"><g><path d="M 13.40625 -3.703125 L 5.40625 -3.703125 L 3.875 0 L -0.21875 0 L 7.46875 -17.265625 L 11.421875 -17.265625 L 19.140625 0 L 14.9375 0 Z M 12.15625 -6.734375 L 9.421875 -13.34375 L 6.6875 -6.734375 Z M 12.15625 -6.734375 "/></g></g></g><path fill="#6f6f6f" d="M 14.285156 98.640625 L 45.324219 115.078125 L 43.300781 116.320312 L 14.285156 98.640625 " fill-opacity="1" fill-rule="nonzero"/><path fill="#000000" d="M 19.480469 120.246094 L 9.105469 128.246094 L 9.105469 126.636719 L 19.480469 118.632812 Z M 19.480469 120.246094 " fill-opacity="1" fill-rule="nonzero"/><path fill="#000000" d="M 19.480469 122.792969 L 9.105469 130.792969 L 9.105469 129.183594 L 19.480469 121.183594 Z M 19.480469 122.792969 " fill-opacity="1" fill-rule="nonzero"/><path fill="#000000" d="M 19.476562 125.371094 L 9.097656 133.371094 L 9.097656 131.761719 L 19.476562 123.757812 Z M 19.476562 125.371094 " fill-opacity="1" fill-rule="nonzero"/><path fill="#000000" d="M 19.480469 127.929688 L 9.105469 135.929688 L 9.105469 134.320312 L 19.480469 126.320312 Z M 19.480469 127.929688 " fill-opacity="1" fill-rule="nonzero"/><path fill="#000000" d="M 9.097656 136.894531 L 19.472656 128.890625 L 19.476562 138.660156 L 9.097656 146.535156 Z M 9.097656 136.894531 " fill-opacity="1" fill-rule="nonzero"/><path fill="#2d2d2d" d="M 16.921875 104.25 L 9.097656 94.707031 L 9.097656 100.160156 Z M 16.921875 104.25 " fill-opacity="1" fill-rule="nonzero"/><path fill="#000000" d="M 9.097656 102.023438 L 9.097656 125.40625 L 19.476562 117.371094 L 19.476562 110.964844 Z M 9.097656 102.023438 " fill-opacity="1" fill-rule="nonzero"/><path fill="#000000" d="M 35.015625 113.714844 L 20.984375 121.183594 L 20.984375 128.246094 L 41.785156 115.078125 L 14.285156 98.640625 L 45.324219 115.078125 L 26.277344 126.800781 L 26.277344 129.957031 L 50.773438 115.078125 L 9.097656 94.707031 L 16.921875 104.25 Z M 35.015625 113.714844 " fill-opacity="1" fill-rule="nonzero"/><path fill="#6f6f6f" d="M 41.785156 115.078125 L 41.785156 117.234375 L 20.984375 130.484375 L 20.984375 128.246094 L 41.785156 115.078125 " fill-opacity="1" fill-rule="nonzero"/><path fill="#6f6f6f" d="M 50.773438 115.078125 L 50.773438 117.28125 L 26.277344 132.160156 L 26.277344 129.957031 Z M 50.773438 115.078125 " fill-opacity="1" fill-rule="nonzero"/><path fill="#6f6f6f" d="M 32.644531 114.976562 L 35.015625 113.714844 L 9.097656 100.160156 L 13.632812 104.25 Z M 32.644531 114.976562 " fill-opacity="1" fill-rule="nonzero"/><g fill="#000000" fill-opacity="1"><g transform="translate(60.641344, 137.09249)"><g><path d="M 1.953125 -7.921875 L 7.234375 -7.921875 C 7.597656 -7.921875 7.910156 -7.789062 8.171875 -7.53125 C 8.429688 -7.28125 8.5625 -6.96875 8.5625 -6.59375 L 8.5625 0 L 7.671875 0 L 7.671875 -2.890625 L 1.53125 -2.890625 L 1.53125 0 L 0.640625 0 L 0.640625 -6.59375 C 0.640625 -6.96875 0.765625 -7.28125 1.015625 -7.53125 C 1.273438 -7.789062 1.585938 -7.921875 1.953125 -7.921875 Z M 1.53125 -3.78125 L 7.671875 -3.78125 L 7.671875 -6.59375 C 7.671875 -6.71875 7.625 -6.820312 7.53125 -6.90625 C 7.445312 -6.988281 7.347656 -7.03125 7.234375 -7.03125 L 1.953125 -7.03125 C 1.835938 -7.03125 1.738281 -6.988281 1.65625 -6.90625 C 1.570312 -6.820312 1.53125 -6.71875 1.53125 -6.59375 Z M 1.53125 -3.78125 "/></g></g></g><g fill="#000000" fill-opacity="1"><g transform="translate(71.383255, 137.09249)"><g><path d="M 7.265625 -6.375 L 8.328125 -6.375 L 4.796875 0 L 3.75 0 L 0.234375 -6.375 L 1.28125 -6.375 L 4.28125 -0.875 Z M 7.265625 -6.375 "/></g></g></g><g fill="#000000" fill-opacity="1"><g transform="translate(81.61943, 137.09249)"><g><path d="M 5.734375 -6.375 C 6.109375 -6.375 6.425781 -6.242188 6.6875 -5.984375 C 6.945312 -5.722656 7.078125 -5.410156 7.078125 -5.046875 L 7.078125 0 L 1.90625 0 C 1.539062 0 1.226562 -0.128906 0.96875 -0.390625 C 0.707031 -0.648438 0.578125 -0.960938 0.578125 -1.328125 L 0.578125 -3.640625 L 6.15625 -3.640625 L 6.15625 -5.046875 C 6.15625 -5.160156 6.113281 -5.257812 6.03125 -5.34375 C 5.945312 -5.4375 5.847656 -5.484375 5.734375 -5.484375 L 0.578125 -5.484375 L 0.578125 -6.375 Z M 6.15625 -0.90625 L 6.15625 -2.734375 L 1.46875 -2.734375 L 1.46875 -1.328125 C 1.46875 -1.210938 1.507812 -1.113281 1.59375 -1.03125 C 1.6875 -0.945312 1.789062 -0.90625 1.90625 -0.90625 Z M 6.15625 -0.90625 "/></g></g></g><g fill="#000000" fill-opacity="1"><g transform="translate(90.800163, 137.09249)"><g><path d="M 5.765625 -6.375 C 6.128906 -6.375 6.441406 -6.242188 6.703125 -5.984375 C 6.960938 -5.722656 7.09375 -5.410156 7.09375 -5.046875 L 7.09375 0 L 6.1875 0 L 6.1875 -5.046875 C 6.1875 -5.160156 6.144531 -5.257812 6.0625 -5.34375 C 5.976562 -5.4375 5.878906 -5.484375 5.765625 -5.484375 L 1.9375 -5.484375 C 1.820312 -5.484375 1.71875 -5.4375 1.625 -5.34375 C 1.539062 -5.257812 1.5 -5.160156 1.5 -5.046875 L 1.5 0 L 0.59375 0 L 0.59375 -6.375 Z M 5.765625 -6.375 "/></g></g></g><g fill="#000000" fill-opacity="1"><g transform="translate(100.002888, 137.09249)"><g><path d="M 1.890625 -0.90625 L 7.0625 -0.90625 L 7.0625 0 L 1.890625 0 C 1.523438 0 1.210938 -0.128906 0.953125 -0.390625 C 0.691406 -0.648438 0.5625 -0.960938 0.5625 -1.328125 L 0.5625 -5.046875 C 0.5625 -5.410156 0.691406 -5.722656 0.953125 -5.984375 C 1.210938 -6.242188 1.523438 -6.375 1.890625 -6.375 L 7.046875 -6.375 L 7.046875 -5.484375 L 1.890625 -5.484375 C 1.773438 -5.484375 1.675781 -5.4375 1.59375 -5.34375 C 1.507812 -5.257812 1.46875 -5.160156 1.46875 -5.046875 L 1.46875 -1.328125 C 1.46875 -1.210938 1.507812 -1.113281 1.59375 -1.03125 C 1.675781 -0.945312 1.773438 -0.90625 1.890625 -0.90625 Z M 1.890625 -0.90625 "/></g></g></g><g fill="#000000" fill-opacity="1"><g transform="translate(109.194624, 137.09249)"><g><path d="M 5.71875 -6.375 C 6.09375 -6.375 6.410156 -6.242188 6.671875 -5.984375 C 6.929688 -5.722656 7.0625 -5.410156 7.0625 -5.046875 L 7.0625 -2.734375 L 1.46875 -2.734375 L 1.46875 -1.328125 C 1.46875 -1.210938 1.507812 -1.113281 1.59375 -1.03125 C 1.675781 -0.945312 1.773438 -0.90625 1.890625 -0.90625 L 7.0625 -0.90625 L 7.0625 0 L 1.890625 0 C 1.523438 0 1.210938 -0.128906 0.953125 -0.390625 C 0.691406 -0.648438 0.5625 -0.960938 0.5625 -1.328125 L 0.5625 -5.046875 C 0.5625 -5.410156 0.691406 -5.722656 0.953125 -5.984375 C 1.210938 -6.242188 1.523438 -6.375 1.890625 -6.375 Z M 1.46875 -3.640625 L 6.15625 -3.640625 L 6.15625 -5.046875 C 6.15625 -5.160156 6.109375 -5.257812 6.015625 -5.34375 C 5.929688 -5.4375 5.832031 -5.484375 5.71875 -5.484375 L 1.890625 -5.484375 C 1.773438 -5.484375 1.675781 -5.4375 1.59375 -5.34375 C 1.507812 -5.257812 1.46875 -5.160156 1.46875 -5.046875 Z M 1.46875 -3.640625 "/></g></g></g><g fill="#000000" fill-opacity="1"><g transform="translate(118.353371, 137.09249)"><g/></g></g><g fill="#000000" fill-opacity="1"><g transform="translate(122.894578, 137.09249)"><g><path d="M 1.890625 -0.90625 L 7.0625 -0.90625 L 7.0625 0 L 1.890625 0 C 1.523438 0 1.210938 -0.128906 0.953125 -0.390625 C 0.691406 -0.648438 0.5625 -0.960938 0.5625 -1.328125 L 0.5625 -5.046875 C 0.5625 -5.410156 0.691406 -5.722656 0.953125 -5.984375 C 1.210938 -6.242188 1.523438 -6.375 1.890625 -6.375 L 7.046875 -6.375 L 7.046875 -5.484375 L 1.890625 -5.484375 C 1.773438 -5.484375 1.675781 -5.4375 1.59375 -5.34375 C 1.507812 -5.257812 1.46875 -5.160156 1.46875 -5.046875 L 1.46875 -1.328125 C 1.46875 -1.210938 1.507812 -1.113281 1.59375 -1.03125 C 1.675781 -0.945312 1.773438 -0.90625 1.890625 -0.90625 Z M 1.890625 -0.90625 "/></g></g></g><g fill="#000000" fill-opacity="1"><g transform="translate(132.086315, 137.09249)"><g><path d="M 1.890625 -6.375 L 5.71875 -6.375 C 6.09375 -6.375 6.410156 -6.242188 6.671875 -5.984375 C 6.929688 -5.722656 7.0625 -5.410156 7.0625 -5.046875 L 7.0625 -1.328125 C 7.0625 -0.960938 6.929688 -0.648438 6.671875 -0.390625 C 6.410156 -0.128906 6.09375 0 5.71875 0 L 1.890625 0 C 1.523438 0 1.210938 -0.128906 0.953125 -0.390625 C 0.691406 -0.648438 0.5625 -0.960938 0.5625 -1.328125 L 0.5625 -5.046875 C 0.5625 -5.410156 0.691406 -5.722656 0.953125 -5.984375 C 1.210938 -6.242188 1.523438 -6.375 1.890625 -6.375 Z M 5.71875 -5.484375 L 1.890625 -5.484375 C 1.773438 -5.484375 1.675781 -5.4375 1.59375 -5.34375 C 1.507812 -5.257812 1.46875 -5.160156 1.46875 -5.046875 L 1.46875 -1.328125 C 1.46875 -1.210938 1.507812 -1.113281 1.59375 -1.03125 C 1.675781 -0.945312 1.773438 -0.90625 1.890625 -0.90625 L 5.71875 -0.90625 C 5.832031 -0.90625 5.929688 -0.945312 6.015625 -1.03125 C 6.109375 -1.113281 6.15625 -1.210938 6.15625 -1.328125 L 6.15625 -5.046875 C 6.15625 -5.160156 6.109375 -5.257812 6.015625 -5.34375 C 5.929688 -5.4375 5.832031 -5.484375 5.71875 -5.484375 Z M 5.71875 -5.484375 "/></g></g></g><g fill="#000000" fill-opacity="1"><g transform="translate(141.245062, 137.09249)"><g><path d="M 5.765625 -6.375 C 6.128906 -6.375 6.441406 -6.242188 6.703125 -5.984375 C 6.960938 -5.722656 7.09375 -5.410156 7.09375 -5.046875 L 7.09375 0 L 6.1875 0 L 6.1875 -5.046875 C 6.1875 -5.160156 6.144531 -5.257812 6.0625 -5.34375 C 5.976562 -5.4375 5.878906 -5.484375 5.765625 -5.484375 L 1.9375 -5.484375 C 1.820312 -5.484375 1.71875 -5.4375 1.625 -5.34375 C 1.539062 -5.257812 1.5 -5.160156 1.5 -5.046875 L 1.5 0 L 0.59375 0 L 0.59375 -6.375 Z M 5.765625 -6.375 "/></g></g></g><g fill="#000000" fill-opacity="1"><g transform="translate(150.447787, 137.09249)"><g/></g></g><g fill="#000000" fill-opacity="1"><g transform="translate(154.988994, 137.09249)"><g><path d="M 5.765625 -6.375 C 6.128906 -6.375 6.441406 -6.242188 6.703125 -5.984375 C 6.960938 -5.722656 7.09375 -5.410156 7.09375 -5.046875 L 7.09375 -1.328125 C 7.09375 -0.960938 6.960938 -0.648438 6.703125 -0.390625 C 6.441406 -0.128906 6.128906 0 5.765625 0 L 1.5 0 L 1.5 2.53125 L 0.59375 2.53125 L 0.59375 -6.375 Z M 6.1875 -1.328125 L 6.1875 -5.046875 C 6.1875 -5.160156 6.144531 -5.257812 6.0625 -5.34375 C 5.976562 -5.4375 5.878906 -5.484375 5.765625 -5.484375 L 1.9375 -5.484375 C 1.820312 -5.484375 1.71875 -5.4375 1.625 -5.34375 C 1.539062 -5.257812 1.5 -5.160156 1.5 -5.046875 L 1.5 -1.328125 C 1.5 -1.210938 1.539062 -1.113281 1.625 -1.03125 C 1.71875 -0.945312 1.820312 -0.90625 1.9375 -0.90625 L 5.765625 -0.90625 C 5.878906 -0.90625 5.976562 -0.945312 6.0625 -1.03125 C 6.144531 -1.113281 6.1875 -1.210938 6.1875 -1.328125 Z M 6.1875 -1.328125 "/></g></g></g><g fill="#000000" fill-opacity="1"><g transform="translate(163.839906, 137.09249)"><g><path d="M 1.90625 -6.375 L 5.484375 -6.375 L 5.484375 -5.484375 L 1.90625 -5.484375 C 1.789062 -5.484375 1.6875 -5.4375 1.59375 -5.34375 C 1.507812 -5.257812 1.46875 -5.160156 1.46875 -5.046875 L 1.46875 0 L 0.578125 0 L 0.578125 -5.046875 C 0.578125 -5.410156 0.707031 -5.722656 0.96875 -5.984375 C 1.226562 -6.242188 1.539062 -6.375 1.90625 -6.375 Z M 1.90625 -6.375 "/></g></g></g><g fill="#000000" fill-opacity="1"><g transform="translate(171.019707, 137.09249)"><g><path d="M 1.890625 -6.375 L 5.71875 -6.375 C 6.09375 -6.375 6.410156 -6.242188 6.671875 -5.984375 C 6.929688 -5.722656 7.0625 -5.410156 7.0625 -5.046875 L 7.0625 -1.328125 C 7.0625 -0.960938 6.929688 -0.648438 6.671875 -0.390625 C 6.410156 -0.128906 6.09375 0 5.71875 0 L 1.890625 0 C 1.523438 0 1.210938 -0.128906 0.953125 -0.390625 C 0.691406 -0.648438 0.5625 -0.960938 0.5625 -1.328125 L 0.5625 -5.046875 C 0.5625 -5.410156 0.691406 -5.722656 0.953125 -5.984375 C 1.210938 -6.242188 1.523438 -6.375 1.890625 -6.375 Z M 5.71875 -5.484375 L 1.890625 -5.484375 C 1.773438 -5.484375 1.675781 -5.4375 1.59375 -5.34375 C 1.507812 -5.257812 1.46875 -5.160156 1.46875 -5.046875 L 1.46875 -1.328125 C 1.46875 -1.210938 1.507812 -1.113281 1.59375 -1.03125 C 1.675781 -0.945312 1.773438 -0.90625 1.890625 -0.90625 L 5.71875 -0.90625 C 5.832031 -0.90625 5.929688 -0.945312 6.015625 -1.03125 C 6.109375 -1.113281 6.15625 -1.210938 6.15625 -1.328125 L 6.15625 -5.046875 C 6.15625 -5.160156 6.109375 -5.257812 6.015625 -5.34375 C 5.929688 -5.4375 5.832031 -5.484375 5.71875 -5.484375 Z M 5.71875 -5.484375 "/></g></g></g><g fill="#000000" fill-opacity="1"><g transform="translate(180.178447, 137.09249)"><g><path d="M 5.765625 -6.375 C 6.128906 -6.375 6.441406 -6.242188 6.703125 -5.984375 C 6.960938 -5.722656 7.09375 -5.410156 7.09375 -5.046875 L 7.09375 -1.328125 C 7.09375 -0.960938 6.960938 -0.648438 6.703125 -0.390625 C 6.441406 -0.128906 6.128906 0 5.765625 0 L 1.5 0 L 1.5 2.53125 L 0.59375 2.53125 L 0.59375 -6.375 Z M 6.1875 -1.328125 L 6.1875 -5.046875 C 6.1875 -5.160156 6.144531 -5.257812 6.0625 -5.34375 C 5.976562 -5.4375 5.878906 -5.484375 5.765625 -5.484375 L 1.9375 -5.484375 C 1.820312 -5.484375 1.71875 -5.4375 1.625 -5.34375 C 1.539062 -5.257812 1.5 -5.160156 1.5 -5.046875 L 1.5 -1.328125 C 1.5 -1.210938 1.539062 -1.113281 1.625 -1.03125 C 1.71875 -0.945312 1.820312 -0.90625 1.9375 -0.90625 L 5.765625 -0.90625 C 5.878906 -0.90625 5.976562 -0.945312 6.0625 -1.03125 C 6.144531 -1.113281 6.1875 -1.210938 6.1875 -1.328125 Z M 6.1875 -1.328125 "/></g></g></g><g fill="#000000" fill-opacity="1"><g transform="translate(189.029353, 137.09249)"><g><path d="M 1.890625 -6.375 L 5.71875 -6.375 C 6.09375 -6.375 6.410156 -6.242188 6.671875 -5.984375 C 6.929688 -5.722656 7.0625 -5.410156 7.0625 -5.046875 L 7.0625 -1.328125 C 7.0625 -0.960938 6.929688 -0.648438 6.671875 -0.390625 C 6.410156 -0.128906 6.09375 0 5.71875 0 L 1.890625 0 C 1.523438 0 1.210938 -0.128906 0.953125 -0.390625 C 0.691406 -0.648438 0.5625 -0.960938 0.5625 -1.328125 L 0.5625 -5.046875 C 0.5625 -5.410156 0.691406 -5.722656 0.953125 -5.984375 C 1.210938 -6.242188 1.523438 -6.375 1.890625 -6.375 Z M 5.71875 -5.484375 L 1.890625 -5.484375 C 1.773438 -5.484375 1.675781 -5.4375 1.59375 -5.34375 C 1.507812 -5.257812 1.46875 -5.160156 1.46875 -5.046875 L 1.46875 -1.328125 C 1.46875 -1.210938 1.507812 -1.113281 1.59375 -1.03125 C 1.675781 -0.945312 1.773438 -0.90625 1.890625 -0.90625 L 5.71875 -0.90625 C 5.832031 -0.90625 5.929688 -0.945312 6.015625 -1.03125 C 6.109375 -1.113281 6.15625 -1.210938 6.15625 -1.328125 L 6.15625 -5.046875 C 6.15625 -5.160156 6.109375 -5.257812 6.015625 -5.34375 C 5.929688 -5.4375 5.832031 -5.484375 5.71875 -5.484375 Z M 2.984375 -8.40625 L 3.375 -9.9375 L 4.25 -9.9375 L 3.875 -8.40625 Z M 2.984375 -8.40625 "/></g></g></g><g fill="#000000" fill-opacity="1"><g transform="translate(198.188093, 137.09249)"><g><path d="M 7.03125 -5.046875 L 7.03125 -4.96875 L 6.109375 -4.96875 L 6.109375 -5.046875 C 6.109375 -5.160156 6.066406 -5.257812 5.984375 -5.34375 C 5.898438 -5.4375 5.800781 -5.484375 5.6875 -5.484375 L 1.859375 -5.484375 C 1.742188 -5.484375 1.644531 -5.4375 1.5625 -5.34375 C 1.476562 -5.257812 1.4375 -5.160156 1.4375 -5.046875 L 1.4375 -4.0625 C 1.4375 -3.945312 1.476562 -3.847656 1.5625 -3.765625 C 1.644531 -3.679688 1.742188 -3.640625 1.859375 -3.640625 L 5.6875 -3.640625 C 6.0625 -3.640625 6.378906 -3.507812 6.640625 -3.25 C 6.898438 -2.988281 7.03125 -2.675781 7.03125 -2.3125 L 7.03125 -1.328125 C 7.03125 -0.960938 6.898438 -0.648438 6.640625 -0.390625 C 6.378906 -0.128906 6.0625 0 5.6875 0 L 1.859375 0 C 1.492188 0 1.179688 -0.128906 0.921875 -0.390625 C 0.660156 -0.648438 0.53125 -0.960938 0.53125 -1.328125 L 0.53125 -1.421875 L 1.4375 -1.421875 L 1.4375 -1.328125 C 1.4375 -1.210938 1.476562 -1.113281 1.5625 -1.03125 C 1.644531 -0.945312 1.742188 -0.90625 1.859375 -0.90625 L 5.6875 -0.90625 C 5.800781 -0.90625 5.898438 -0.945312 5.984375 -1.03125 C 6.066406 -1.113281 6.109375 -1.210938 6.109375 -1.328125 L 6.109375 -2.3125 C 6.109375 -2.425781 6.066406 -2.523438 5.984375 -2.609375 C 5.898438 -2.691406 5.800781 -2.734375 5.6875 -2.734375 L 1.859375 -2.734375 C 1.492188 -2.734375 1.179688 -2.863281 0.921875 -3.125 C 0.660156 -3.382812 0.53125 -3.695312 0.53125 -4.0625 L 0.53125 -5.046875 C 0.53125 -5.410156 0.660156 -5.722656 0.921875 -5.984375 C 1.179688 -6.242188 1.492188 -6.375 1.859375 -6.375 L 5.6875 -6.375 C 6.0625 -6.375 6.378906 -6.242188 6.640625 -5.984375 C 6.898438 -5.722656 7.03125 -5.410156 7.03125 -5.046875 Z M 7.03125 -5.046875 "/></g></g></g><g fill="#000000" fill-opacity="1"><g transform="translate(207.280879, 137.09249)"><g><path d="M 0.578125 0 L 0.578125 -6.375 L 1.46875 -6.375 L 1.46875 0 Z M 0.578125 -8.46875 L 1.46875 -8.46875 L 1.46875 -7.5625 L 0.578125 -7.5625 Z M 0.578125 -8.46875 "/></g></g></g><g fill="#000000" fill-opacity="1"><g transform="translate(211.118453, 137.09249)"><g><path d="M 4.25 -5.484375 L 1.484375 -5.484375 L 1.484375 -1.328125 C 1.484375 -1.210938 1.523438 -1.113281 1.609375 -1.03125 C 1.691406 -0.945312 1.789062 -0.90625 1.90625 -0.90625 L 4.25 -0.90625 L 4.25 0 L 1.90625 0 C 1.539062 0 1.226562 -0.128906 0.96875 -0.390625 C 0.707031 -0.648438 0.578125 -0.960938 0.578125 -1.328125 L 0.578125 -8.46875 L 1.484375 -8.46875 L 1.484375 -6.375 L 4.25 -6.375 Z M 4.25 -5.484375 "/></g></g></g><g fill="#000000" fill-opacity="1"><g transform="translate(217.17684, 137.09249)"><g><path d="M 1.890625 -6.375 L 5.71875 -6.375 C 6.09375 -6.375 6.410156 -6.242188 6.671875 -5.984375 C 6.929688 -5.722656 7.0625 -5.410156 7.0625 -5.046875 L 7.0625 -1.328125 C 7.0625 -0.960938 6.929688 -0.648438 6.671875 -0.390625 C 6.410156 -0.128906 6.09375 0 5.71875 0 L 1.890625 0 C 1.523438 0 1.210938 -0.128906 0.953125 -0.390625 C 0.691406 -0.648438 0.5625 -0.960938 0.5625 -1.328125 L 0.5625 -5.046875 C 0.5625 -5.410156 0.691406 -5.722656 0.953125 -5.984375 C 1.210938 -6.242188 1.523438 -6.375 1.890625 -6.375 Z M 5.71875 -5.484375 L 1.890625 -5.484375 C 1.773438 -5.484375 1.675781 -5.4375 1.59375 -5.34375 C 1.507812 -5.257812 1.46875 -5.160156 1.46875 -5.046875 L 1.46875 -1.328125 C 1.46875 -1.210938 1.507812 -1.113281 1.59375 -1.03125 C 1.675781 -0.945312 1.773438 -0.90625 1.890625 -0.90625 L 5.71875 -0.90625 C 5.832031 -0.90625 5.929688 -0.945312 6.015625 -1.03125 C 6.109375 -1.113281 6.15625 -1.210938 6.15625 -1.328125 L 6.15625 -5.046875 C 6.15625 -5.160156 6.109375 -5.257812 6.015625 -5.34375 C 5.929688 -5.4375 5.832031 -5.484375 5.71875 -5.484375 Z M 5.71875 -5.484375 "/></g></g></g></svg>