<svg xmlns="http://www.w3.org/2000/svg" xmlns:xlink="http://www.w3.org/1999/xlink" width="320" zoomAndPan="magnify" viewBox="0 0 240 239.999995" height="320" preserveAspectRatio="xMidYMid meet" version="1.0"><path fill="#6f6f6f" d="M 74.992188 39.824219 L 191.511719 101.539062 L 183.921875 106.210938 L 74.992188 39.824219 " fill-opacity="1" fill-rule="nonzero"/><path fill="#000000" d="M 94.488281 120.9375 L 55.53125 150.976562 L 55.53125 144.933594 L 94.488281 114.894531 Z M 94.488281 120.9375 " fill-opacity="1" fill-rule="nonzero"/><path fill="#000000" d="M 94.488281 130.503906 L 55.53125 160.542969 L 55.53125 154.496094 L 94.488281 124.457031 Z M 94.488281 130.503906 " fill-opacity="1" fill-rule="nonzero"/><path fill="#000000" d="M 94.46875 140.175781 L 55.511719 170.21875 L 55.511719 164.171875 L 94.46875 134.132812 Z M 94.46875 140.175781 " fill-opacity="1" fill-rule="nonzero"/><path fill="#000000" d="M 94.488281 149.792969 L 55.53125 179.832031 L 55.53125 173.785156 L 94.488281 143.746094 Z M 94.488281 149.792969 " fill-opacity="1" fill-rule="nonzero"/><path fill="#000000" d="M 55.503906 183.441406 L 94.457031 153.402344 L 94.480469 190.074219 L 55.503906 219.636719 Z M 55.503906 183.441406 " fill-opacity="1" fill-rule="nonzero"/><path fill="#2d2d2d" d="M 84.875 60.886719 L 55.511719 25.0625 L 55.511719 45.53125 Z M 84.875 60.886719 " fill-opacity="1" fill-rule="nonzero"/><path fill="#000000" d="M 55.511719 52.53125 L 55.511719 140.316406 L 94.46875 110.15625 L 94.46875 86.101562 Z M 55.511719 52.53125 " fill-opacity="1" fill-rule="nonzero"/><path fill="#000000" d="M 152.8125 96.421875 L 100.136719 124.457031 L 100.136719 150.976562 L 178.226562 101.539062 L 74.992188 39.824219 L 191.511719 101.539062 L 120 145.554688 L 120 157.402344 L 211.972656 101.539062 L 55.511719 25.0625 L 84.875 60.886719 Z M 152.8125 96.421875 " fill-opacity="1" fill-rule="nonzero"/><path fill="#6f6f6f" d="M 178.226562 101.539062 L 178.226562 109.632812 L 100.136719 159.378906 L 100.136719 150.976562 L 178.226562 101.539062 " fill-opacity="1" fill-rule="nonzero"/><path fill="#6f6f6f" d="M 211.972656 101.539062 L 211.972656 109.8125 L 120 165.675781 L 120 157.402344 Z M 211.972656 101.539062 " fill-opacity="1" fill-rule="nonzero"/><path fill="#6f6f6f" d="M 143.90625 101.164062 L 152.8125 96.421875 L 55.511719 45.53125 L 72.527344 60.886719 Z M 143.90625 101.164062 " fill-opacity="1" fill-rule="nonzero"/></svg>